<svg xmlns="http://www.w3.org/2000/svg" viewBox="0 0 253.45 194.22"><defs><style>.cls-1{fill:#575756;}.cls-2{fill:#e94e1b;}.cls-3{fill:#f07e20;}</style></defs><title>fitness-way</title><g id="Layer_2" data-name="Layer 2"><g id="Layer_1-2" data-name="Layer 1"><path class="cls-1" d="M30,69.09a10.2,10.2,0,0,1-.9,1.43c-.42.59-.87,1.17-1.34,1.74a15.83,15.83,0,0,1-1.38,1.49q-.67.62-1,.62H13.6l-2.19,6.14,3.64-3.6h8.85l-5.48,5.28H10.8L8.08,89.82H.76l7.4-20.73Z"/><path class="cls-1" d="M23.34,89.78a4.58,4.58,0,0,1,.56-.86c.34-.47.75-1,1.22-1.56s1-1.13,1.46-1.67a7.92,7.92,0,0,1,1.28-1.15h4.6L36.1,74.37H28.86v0a4.32,4.32,0,0,1,.56-.86c.34-.47.75-1,1.23-1.56s1-1.12,1.46-1.66a7.65,7.65,0,0,1,1.28-1.15H52.59a11.17,11.17,0,0,1-.9,1.43c-.42.59-.87,1.17-1.34,1.74A15.79,15.79,0,0,1,49,73.75c-.45.42-.78.62-1,.62H43.46L39.82,84.54h7.25a10.8,10.8,0,0,1-.9,1.43c-.42.59-.87,1.17-1.34,1.74a15.33,15.33,0,0,1-1.38,1.49c-.45.42-.77.63-1,.63H23.34Z"/><path class="cls-1" d="M58.87,74.37H51.63v0a4.21,4.21,0,0,1,.56-.86q.51-.7,1.22-1.56t1.46-1.66a7.6,7.6,0,0,1,1.28-1.15h19.2a10.88,10.88,0,0,1-.9,1.43c-.42.58-.87,1.17-1.34,1.74a15.61,15.61,0,0,1-1.38,1.49c-.45.42-.77.62-1,.62H66.23L60.71,89.82H53.35Z"/><polygon class="cls-1" points="77.31 69.09 86.59 69.09 88.77 80.74 92.95 69.09 100.23 69.09 92.83 89.82 83.56 89.82 81.41 78.16 77.27 89.82 69.91 89.82 77.31 69.09"/><path class="cls-1" d="M124.23,69.09a10.7,10.7,0,0,1-.9,1.43c-.42.59-.87,1.17-1.34,1.74a15,15,0,0,1-1.38,1.49c-.44.42-.77.62-1,.62H107.82l-2.18,6.14,3.64-3.6h8.86l-5.48,5.28H105l-.84,2.35h14.68l-.19.33-.3.53c-.11.18-.2.35-.31.51a2.22,2.22,0,0,1-.19.28,11.74,11.74,0,0,1-.94,1.09c-.4.42-.79.81-1.17,1.2s-.72.7-1,1a3.12,3.12,0,0,1-.48.39H95l7.4-20.73Z"/><path class="cls-1" d="M137.14,83.25V83a1.91,1.91,0,0,0-.12-.65.42.42,0,0,0-.42-.33h-7.67a3.87,3.87,0,0,1-2.07-.57A5.89,5.89,0,0,1,125.28,80a6.55,6.55,0,0,1-1-1.94,6.64,6.64,0,0,1-.35-2.07,5.28,5.28,0,0,1,.54-2.13,11,11,0,0,1,1.38-2.27,8.35,8.35,0,0,1,1.92-1.8,3.81,3.81,0,0,1,2.15-.72h19.55a28.46,28.46,0,0,1-2,2.66q-1.13,1.32-2.51,2.66H132.27c-.28,0-.52.19-.73.58a2.19,2.19,0,0,0-.31.94v.19s.05.09.15.18l.23.21a1.5,1.5,0,0,0,.44.29,1.74,1.74,0,0,0,.33.14h7.29a3.61,3.61,0,0,1,2.11.6,4.92,4.92,0,0,1,1.44,1.52,7.29,7.29,0,0,1,.82,2,7.87,7.87,0,0,1,.27,2v.24a5.86,5.86,0,0,1-.46,2.17,9,9,0,0,1-1.21,2.13,7.06,7.06,0,0,1-1.73,1.62,3.6,3.6,0,0,1-2,.65H119.36a11.68,11.68,0,0,1,.78-1.25c.4-.57.82-1.15,1.27-1.74s.86-1.11,1.25-1.56.61-.69.69-.69h13c.38,0,.6-.11.67-.35a2.89,2.89,0,0,0,.09-.74Z"/><path class="cls-1" d="M162.17,83.25V83a1.91,1.91,0,0,0-.12-.65.42.42,0,0,0-.42-.33H154a3.87,3.87,0,0,1-2.07-.57A6,6,0,0,1,150.31,80a6.53,6.53,0,0,1-1-1.94A6.6,6.6,0,0,1,149,76a5.29,5.29,0,0,1,.54-2.13,10.89,10.89,0,0,1,1.38-2.27,8.37,8.37,0,0,1,1.92-1.8,3.81,3.81,0,0,1,2.15-.72h19.55a28.92,28.92,0,0,1-2,2.66q-1.13,1.32-2.51,2.66H157.3c-.28,0-.52.19-.73.58a2.23,2.23,0,0,0-.31.94v.19s.05.09.15.18l.23.21a1.51,1.51,0,0,0,.44.29,1.67,1.67,0,0,0,.33.14h7.28a3.62,3.62,0,0,1,2.11.6,4.93,4.93,0,0,1,1.44,1.52,7.33,7.33,0,0,1,.83,2,8,8,0,0,1,.27,2v.24a5.85,5.85,0,0,1-.46,2.17,8.91,8.91,0,0,1-1.21,2.13A7.09,7.09,0,0,1,166,89.17a3.61,3.61,0,0,1-2,.65H144.39a11.32,11.32,0,0,1,.78-1.25q.59-.86,1.27-1.74c.44-.59.86-1.11,1.24-1.56s.62-.69.69-.69h13c.38,0,.61-.11.67-.35a2.85,2.85,0,0,0,.09-.74Z"/><path class="cls-2" d="M201.58,69.09h6.75L196.75,87.35l-.44.65c-.19.27-.4.55-.61.82a5.58,5.58,0,0,1-.65.71.91.91,0,0,1-.52.29H190c-.21,0-.36-.18-.48-.53a9.87,9.87,0,0,1-.33-1.62c-.1-.73-.21-1.67-.33-2.81s-.26-2.52-.44-4.11l-4.52,6.61a6.56,6.56,0,0,0-.46.65c-.18.27-.37.55-.57.82a5.8,5.8,0,0,1-.61.71.85.85,0,0,1-.54.29h-4.56c-.18,0-.33-.12-.45-.37a3.85,3.85,0,0,1-.27-.9,9.83,9.83,0,0,1-.13-1.15c0-.42,0-.79,0-1.13V69.09h6.32V79.33l6.52-10.24H195l.65,9.54Z"/><path class="cls-2" d="M219.48,89.82l-.8-4.42a4.58,4.58,0,0,1-.56.9c-.32.45-.68.91-1.07,1.41s-.79,1-1.17,1.37a3.33,3.33,0,0,1-.85.74H198.82a1.18,1.18,0,0,1,.08-.27v-.12l13.8-18a3.26,3.26,0,0,1,.46-.63,9.69,9.69,0,0,1,1.55-1.43,1.26,1.26,0,0,1,.67-.29h6.44a.91.91,0,0,1,.71.43,4,4,0,0,1,.56,1.06,13.4,13.4,0,0,1,.4,1.31l.29,1.15,2.53,16.78Zm-8.59-5.24h7.78l-1.34-9.19-6.44,8.8Z"/><polygon class="cls-2" points="232.86 79.96 228.53 69.09 236.73 69.09 238.65 73.98 244.09 69.09 252.29 69.09 240.22 79.96 236.69 89.82 229.33 89.82 232.86 79.96"/><path class="cls-3" d="M100,21C231.6,29.61,233,45.25,213.57,64.13l-4.68,0s27.77-19.48-20.71-30.08c0,0-32.22-7.48-88.2-13.08"/><path class="cls-1" d="M181.78,63.59h-3.3S241.2,5.06,253.45,0c0,0-49.4,38.67-71.66,63.59"/><path class="cls-1" d="M166.82,172.74C35.2,164.12,33.77,148.49,53.23,129.6l4.68,0s-27.77,19.48,20.71,30.07c0,0,32.22,7.48,88.21,13.09"/><path class="cls-3" d="M83.06,130.63h3.3s-62.72,58.53-75,63.59c0,0,49.4-38.67,71.66-63.59"/><path class="cls-1" d="M161.75,97.24a2.45,2.45,0,1,1-2.45-2.44,2.44,2.44,0,0,1,2.45,2.44"/><path class="cls-1" d="M190.49,97.24A2.45,2.45,0,1,1,188,94.8a2.44,2.44,0,0,1,2.45,2.44"/><path class="cls-1" d="M196.56,97.24a2.45,2.45,0,1,1-2.45-2.44,2.44,2.44,0,0,1,2.45,2.44"/><path class="cls-1" d="M237.64,97.24a2.45,2.45,0,1,1-2.44-2.44,2.44,2.44,0,0,1,2.44,2.44"/><path class="cls-2" d="M36,111.85h0c0,3-1.71,5.61-5.19,7.65a24.31,24.31,0,0,1-12.65,3.07h-.37a24.51,24.51,0,0,1-12.7-3.07c-3.42-2-5.13-4.61-5.13-7.65v-3.48H5.8v3.11A6.37,6.37,0,0,0,8.92,117c2.12,1.47,5.19,2.2,9.07,2.2,7.52,0,11.61-2.45,12.24-7.31Z"/><path class="cls-2" d="M30.22,112.08v-.36a1.53,1.53,0,0,0-.09-.5.34.34,0,0,0-.34-.26H23.6a3.23,3.23,0,0,1-1.67-.44,4.61,4.61,0,0,1-1.28-1.13,5.16,5.16,0,0,1-1.1-3.12A4,4,0,0,1,20,104.6a8.55,8.55,0,0,1,1.11-1.77,4.29,4.29,0,0,1,1.3-1.05,3.16,3.16,0,0,1,1.73-.56H39.9a15.57,15.57,0,0,1-1.38,1.72,28.23,28.23,0,0,1-2,2.07H26.29c-.23,0-.42.15-.59.46a1.69,1.69,0,0,0-.25.73v.15s0,.07.12.13l.19.17a1.24,1.24,0,0,0,.36.23,1.28,1.28,0,0,0,.26.11h5.88a3,3,0,0,1,1.7.47,3.92,3.92,0,0,1,1.16,1.19,5.71,5.71,0,0,1,.67,1.54A6.17,6.17,0,0,1,36,111.7V112Z"/><path class="cls-2" d="M64,118l-.67-3.6a4,4,0,0,1-.46.73c-.27.36-.57.74-.9,1.15s-.66.78-1,1.12a2.74,2.74,0,0,1-.7.61H46.75c0-.17.06-.25.06-.22v-.1L58.33,103a2.55,2.55,0,0,1,.38-.51,7.83,7.83,0,0,1,.63-.62,6.72,6.72,0,0,1,.67-.54,1,1,0,0,1,.56-.24h5.38a.75.75,0,0,1,.59.35,3.29,3.29,0,0,1,.47.86c.13.34.24.7.34,1.07l.24.94L69.66,118Zm-7.17-4.27h6.5l-1.12-7.49-5.38,7.17Z"/><polygon class="cls-1" points="128.78 107.03 125.93 114.81 118.94 114.81 121.81 107.03 128.78 107.03"/><polygon class="cls-1" points="139.79 107.03 136.94 114.81 129.94 114.81 132.82 107.03 139.79 107.03"/><path class="cls-1" d="M235.86,102.85c-5.49,0-9.34,3-9.34,7.24a6.43,6.43,0,0,0,1.2,3.73H197.16l3.35-9.15h-4.62l-3.35,9.15H161.6l3.35-9.15h-4.62L157,113.82H109.41a8,8,0,0,0,.26-1.94l1.14-8.72H105l-1.15,8.31a6.7,6.7,0,0,1-2.54,5.26,12.1,12.1,0,0,1-7.93,2.51,12.15,12.15,0,0,1-8-2.51,6.76,6.76,0,0,1-2.59-5.26l1.14-8.31H78l-1.15,8.72c0,3,1.66,5.58,4.92,7.65a20.79,20.79,0,0,0,11.51,3.07,20.12,20.12,0,0,0,11.56-3.2,12.31,12.31,0,0,0,2.44-2H235.86c5.54,0,9.26-3.07,9.26-7.21s-3.76-7.34-9.26-7.34m.08,11.32c-2.77,0-4.67-1.85-4.67-4.11,0-2.44,1.78-4,4.42-4s4.67,1.75,4.67,4.14S238.63,114.17,235.95,114.17Z"/><path class="cls-2" d="M69.55,117.16l.62,3.53s1,3.1-1.41,3.25H57.32l1.85-3.18h3.91a1.28,1.28,0,0,0,1.09-1.44,10.79,10.79,0,0,0-.35-2.4Z"/><polygon class="cls-2" points="51.75 96.7 44.02 117.91 36.7 117.91 44.46 96.7 51.75 96.7"/></g></g></svg>